<?xml version="1.0" encoding="utf-8"?>
<svg width="230" height="50" viewBox="0 0 230 50" fill="none" xmlns="http://www.w3.org/2000/svg">
  <rect x="0.5" y="0.5" width="229" height="49" rx="7.5" stroke="#999999" style="fill: rgb(255, 255, 255);"/>
  <path d="M49.8819 32.8152C49.4553 33.0383 49.0153 33.2349 48.5645 33.4039C47.1295 33.9409 45.6094 34.2144 44.0773 34.2114C38.1627 34.2114 33.0105 30.1429 33.0105 24.922C33.0181 24.2217 33.2124 23.5362 33.5734 22.9361C33.9344 22.336 34.449 21.8432 35.0641 21.5084C29.7145 21.7334 28.3395 27.3081 28.3395 30.5741C28.3395 39.8085 36.8503 40.7447 38.6839 40.7447C39.6726 40.7447 41.1637 40.4572 42.0587 40.1748L42.2224 40.1198C45.6663 38.9292 48.6022 36.6016 50.5469 33.5202C50.6065 33.4263 50.6331 33.3153 50.6225 33.2047C50.6119 33.094 50.5647 32.99 50.4885 32.9092C50.4122 32.8283 50.3112 32.7752 50.2013 32.7582C50.0915 32.7412 49.9791 32.7612 49.8819 32.8152V32.8152Z" fill="url(#paint0_linear_223_1613)" style=""/>
  <path opacity="0.35" d="M49.8819 32.8152C49.4553 33.0383 49.0153 33.2349 48.5645 33.4039C47.1295 33.9409 45.6094 34.2144 44.0773 34.2114C38.1627 34.2114 33.0105 30.1429 33.0105 24.922C33.0181 24.2217 33.2124 23.5362 33.5734 22.9361C33.9344 22.336 34.449 21.8432 35.0641 21.5084C29.7145 21.7334 28.3395 27.3081 28.3395 30.5741C28.3395 39.8085 36.8503 40.7447 38.6839 40.7447C39.6726 40.7447 41.1637 40.4572 42.0587 40.1748L42.2224 40.1198C45.6663 38.9292 48.6022 36.6016 50.5469 33.5202C50.6065 33.4263 50.6331 33.3153 50.6225 33.2047C50.6119 33.094 50.5647 32.99 50.4885 32.9092C50.4122 32.8283 50.3112 32.7752 50.2013 32.7582C50.0915 32.7412 49.9791 32.7612 49.8819 32.8152V32.8152Z" fill="url(#paint1_radial_223_1613)" style=""/>
  <path d="M34.2154 39.1748C33.1006 38.4829 32.1344 37.5762 31.3731 36.5075C30.5054 35.3187 29.9083 33.9544 29.6237 32.5104C29.339 31.0664 29.3738 29.5776 29.7255 28.1484C30.0772 26.7192 30.7373 25.3843 31.6595 24.2373C32.5818 23.0902 33.7438 22.1588 35.0641 21.5085C35.4541 21.3247 36.1203 20.9922 37.0065 21.0085C37.6308 21.013 38.2457 21.1621 38.8028 21.444C39.3599 21.7259 39.8441 22.133 40.2175 22.6334C40.7223 23.3073 41.0006 24.1238 41.0125 24.9657C41.0125 24.9395 44.0698 15.0164 31.0131 15.0164C25.526 15.0164 21.0137 20.2235 21.0137 24.792C20.9921 27.2087 21.5092 29.5998 22.5274 31.7916C24.1915 35.3421 27.1014 38.1578 30.7048 39.7042C34.3081 41.2505 38.3538 41.4198 42.0737 40.1798C40.7712 40.5904 39.3951 40.7137 38.0404 40.5411C36.6857 40.3684 35.3845 39.904 34.2267 39.1798L34.2154 39.1748Z" fill="url(#paint2_linear_223_1613)" style=""/>
  <path opacity="0.41" d="M34.2154 39.1748C33.1006 38.4829 32.1344 37.5762 31.3731 36.5075C30.5054 35.3187 29.9083 33.9544 29.6237 32.5104C29.339 31.0664 29.3738 29.5776 29.7255 28.1484C30.0772 26.7192 30.7373 25.3843 31.6595 24.2373C32.5818 23.0902 33.7438 22.1588 35.0641 21.5085C35.4541 21.3247 36.1203 20.9922 37.0065 21.0085C37.6308 21.013 38.2457 21.1621 38.8028 21.444C39.3599 21.7259 39.8441 22.133 40.2175 22.6334C40.7223 23.3073 41.0006 24.1238 41.0125 24.9657C41.0125 24.9395 44.0698 15.0164 31.0131 15.0164C25.526 15.0164 21.0137 20.2235 21.0137 24.792C20.9921 27.2087 21.5092 29.5998 22.5274 31.7916C24.1915 35.3421 27.1014 38.1578 30.7048 39.7042C34.3081 41.2505 38.3538 41.4198 42.0737 40.1798C40.7712 40.5904 39.3951 40.7137 38.0404 40.5411C36.6857 40.3684 35.3845 39.904 34.2267 39.1798L34.2154 39.1748Z" fill="url(#paint3_radial_223_1613)" style=""/>
  <path d="M40.0401 27.6055C39.9388 27.7368 39.6276 27.918 39.6276 28.313C39.6276 28.6392 39.8401 28.953 40.2175 29.2167C42.0149 30.4666 45.4035 30.3016 45.4122 30.3016C46.744 30.2984 48.0506 29.938 49.1957 29.2579C50.3509 28.5834 51.3097 27.6186 51.9769 26.4592C52.6441 25.2998 52.9965 23.986 52.9992 22.6484C53.0317 19.8473 51.9993 17.9849 51.5818 17.1599C48.9333 11.979 43.2161 8.99921 36.999 8.99921C32.7945 8.99879 28.7588 10.6535 25.7648 13.6054C22.7708 16.5573 21.0591 20.5691 21 24.7732C21.06 20.206 25.5997 16.5175 30.9994 16.5175C31.4368 16.5175 33.9317 16.56 36.249 17.7762C38.2914 18.8486 39.3614 20.1435 40.1051 21.4272C40.8775 22.7608 41.015 24.4457 41.015 25.1169C41.015 25.7882 40.6725 26.7831 40.0401 27.6055V27.6055Z" fill="url(#paint4_radial_223_1613)" style=""/>
  <path d="M40.0401 27.6055C39.9388 27.7368 39.6276 27.918 39.6276 28.313C39.6276 28.6392 39.8401 28.953 40.2175 29.2167C42.0149 30.4666 45.4035 30.3016 45.4122 30.3016C46.744 30.2984 48.0506 29.938 49.1957 29.2579C50.3509 28.5834 51.3097 27.6186 51.9769 26.4592C52.6441 25.2998 52.9965 23.986 52.9992 22.6484C53.0317 19.8473 51.9993 17.9849 51.5818 17.1599C48.9333 11.979 43.2161 8.99921 36.999 8.99921C32.7945 8.99879 28.7588 10.6535 25.7648 13.6054C22.7708 16.5573 21.0591 20.5691 21 24.7732C21.06 20.206 25.5997 16.5175 30.9994 16.5175C31.4368 16.5175 33.9317 16.56 36.249 17.7762C38.2914 18.8486 39.3614 20.1435 40.1051 21.4272C40.8775 22.7608 41.015 24.4457 41.015 25.1169C41.015 25.7882 40.6725 26.7831 40.0401 27.6055V27.6055Z" fill="url(#paint5_radial_223_1613)" style=""/>
  <path d="M69.888 18V9.6H72.468C73.948 9.6 75.036 9.976 75.732 10.728C76.436 11.48 76.788 12.512 76.788 13.824C76.788 15.112 76.436 16.132 75.732 16.884C75.036 17.628 73.948 18 72.468 18H69.888ZM70.896 17.16H72.444C73.26 17.16 73.908 17.028 74.388 16.764C74.876 16.492 75.224 16.108 75.432 15.612C75.64 15.108 75.744 14.512 75.744 13.824C75.744 13.12 75.64 12.516 75.432 12.012C75.224 11.508 74.876 11.12 74.388 10.848C73.908 10.576 73.26 10.44 72.444 10.44H70.896V17.16ZM80.8955 18.144C80.3355 18.144 79.8315 18.016 79.3835 17.76C78.9355 17.504 78.5795 17.144 78.3155 16.68C78.0595 16.208 77.9315 15.656 77.9315 15.024C77.9315 14.392 78.0635 13.844 78.3275 13.38C78.5915 12.908 78.9475 12.544 79.3955 12.288C79.8515 12.032 80.3595 11.904 80.9195 11.904C81.4795 11.904 81.9835 12.032 82.4315 12.288C82.8795 12.544 83.2315 12.908 83.4875 13.38C83.7515 13.844 83.8835 14.392 83.8835 15.024C83.8835 15.656 83.7515 16.208 83.4875 16.68C83.2235 17.144 82.8635 17.504 82.4075 17.76C81.9595 18.016 81.4555 18.144 80.8955 18.144ZM80.8955 17.28C81.2395 17.28 81.5595 17.196 81.8555 17.028C82.1515 16.86 82.3915 16.608 82.5755 16.272C82.7595 15.936 82.8515 15.52 82.8515 15.024C82.8515 14.528 82.7595 14.112 82.5755 13.776C82.3995 13.44 82.1635 13.188 81.8675 13.02C81.5715 12.852 81.2555 12.768 80.9195 12.768C80.5755 12.768 80.2555 12.852 79.9595 13.02C79.6635 13.188 79.4235 13.44 79.2395 13.776C79.0555 14.112 78.9635 14.528 78.9635 15.024C78.9635 15.52 79.0555 15.936 79.2395 16.272C79.4235 16.608 79.6595 16.86 79.9475 17.028C80.2435 17.196 80.5595 17.28 80.8955 17.28ZM86.2624 18L84.5224 12.048H85.5304L86.7904 16.716L88.1824 12.048H89.3224L90.7264 16.716L91.9744 12.048H92.9944L91.2544 18H90.2224L88.7584 13.092L87.2944 18H86.2624ZM94.1093 18V12.048H95.0213L95.0813 13.116C95.2733 12.74 95.5493 12.444 95.9093 12.228C96.2693 12.012 96.6773 11.904 97.1333 11.904C97.8373 11.904 98.3973 12.12 98.8133 12.552C99.2373 12.976 99.4492 13.632 99.4492 14.52V18H98.4413V14.628C98.4413 13.388 97.9293 12.768 96.9053 12.768C96.3933 12.768 95.9653 12.956 95.6213 13.332C95.2853 13.7 95.1173 14.228 95.1173 14.916V18H94.1093ZM100.976 18V9.36H101.984V18H100.976ZM106.349 18.144C105.789 18.144 105.285 18.016 104.837 17.76C104.389 17.504 104.033 17.144 103.769 16.68C103.513 16.208 103.385 15.656 103.385 15.024C103.385 14.392 103.517 13.844 103.781 13.38C104.045 12.908 104.401 12.544 104.849 12.288C105.305 12.032 105.813 11.904 106.373 11.904C106.933 11.904 107.437 12.032 107.885 12.288C108.333 12.544 108.685 12.908 108.941 13.38C109.205 13.844 109.337 14.392 109.337 15.024C109.337 15.656 109.205 16.208 108.941 16.68C108.677 17.144 108.317 17.504 107.861 17.76C107.413 18.016 106.909 18.144 106.349 18.144ZM106.349 17.28C106.693 17.28 107.013 17.196 107.309 17.028C107.605 16.86 107.845 16.608 108.029 16.272C108.213 15.936 108.305 15.52 108.305 15.024C108.305 14.528 108.213 14.112 108.029 13.776C107.853 13.44 107.617 13.188 107.321 13.02C107.025 12.852 106.709 12.768 106.373 12.768C106.029 12.768 105.709 12.852 105.413 13.02C105.117 13.188 104.877 13.44 104.693 13.776C104.509 14.112 104.417 14.528 104.417 15.024C104.417 15.52 104.509 15.936 104.693 16.272C104.877 16.608 105.113 16.86 105.401 17.028C105.697 17.196 106.013 17.28 106.349 17.28ZM112.718 18.144C112.222 18.144 111.81 18.06 111.482 17.892C111.154 17.724 110.91 17.5 110.75 17.22C110.59 16.94 110.51 16.636 110.51 16.308C110.51 15.7 110.742 15.232 111.206 14.904C111.67 14.576 112.302 14.412 113.102 14.412H114.71V14.34C114.71 13.82 114.574 13.428 114.302 13.164C114.03 12.892 113.666 12.756 113.21 12.756C112.818 12.756 112.478 12.856 112.19 13.056C111.91 13.248 111.734 13.532 111.662 13.908H110.63C110.67 13.476 110.814 13.112 111.062 12.816C111.318 12.52 111.634 12.296 112.01 12.144C112.386 11.984 112.786 11.904 113.21 11.904C114.042 11.904 114.666 12.128 115.082 12.576C115.506 13.016 115.718 13.604 115.718 14.34V18H114.818L114.758 16.932C114.59 17.268 114.342 17.556 114.014 17.796C113.694 18.028 113.262 18.144 112.718 18.144ZM112.874 17.292C113.258 17.292 113.586 17.192 113.858 16.992C114.138 16.792 114.35 16.532 114.494 16.212C114.638 15.892 114.71 15.556 114.71 15.204V15.192H113.186C112.594 15.192 112.174 15.296 111.926 15.504C111.686 15.704 111.566 15.956 111.566 16.26C111.566 16.572 111.678 16.824 111.902 17.016C112.134 17.2 112.458 17.292 112.874 17.292ZM119.93 18.144C119.338 18.144 118.818 18.008 118.37 17.736C117.93 17.464 117.586 17.092 117.338 16.62C117.098 16.148 116.978 15.612 116.978 15.012C116.978 14.412 117.102 13.88 117.35 13.416C117.598 12.944 117.942 12.576 118.382 12.312C118.822 12.04 119.342 11.904 119.942 11.904C120.43 11.904 120.862 12.004 121.238 12.204C121.614 12.404 121.906 12.684 122.114 13.044V9.36H123.122V18H122.21L122.114 17.016C121.922 17.304 121.646 17.564 121.286 17.796C120.926 18.028 120.474 18.144 119.93 18.144ZM120.038 17.268C120.438 17.268 120.79 17.176 121.094 16.992C121.406 16.8 121.646 16.536 121.814 16.2C121.99 15.864 122.078 15.472 122.078 15.024C122.078 14.576 121.99 14.184 121.814 13.848C121.646 13.512 121.406 13.252 121.094 13.068C120.79 12.876 120.438 12.78 120.038 12.78C119.646 12.78 119.294 12.876 118.982 13.068C118.678 13.252 118.438 13.512 118.262 13.848C118.094 14.184 118.01 14.576 118.01 15.024C118.01 15.472 118.094 15.864 118.262 16.2C118.438 16.536 118.678 16.8 118.982 16.992C119.294 17.176 119.646 17.268 120.038 17.268ZM128.265 18V12.9H127.365V12.048H128.265V11.016C128.265 10.44 128.409 10.02 128.697 9.756C128.985 9.492 129.405 9.36 129.957 9.36H130.557V10.224H130.113C129.809 10.224 129.593 10.288 129.465 10.416C129.337 10.536 129.273 10.744 129.273 11.04V12.048H130.737V12.9H129.273V18H128.265ZM134.415 18.144C133.855 18.144 133.351 18.016 132.903 17.76C132.455 17.504 132.099 17.144 131.835 16.68C131.579 16.208 131.451 15.656 131.451 15.024C131.451 14.392 131.583 13.844 131.847 13.38C132.111 12.908 132.467 12.544 132.915 12.288C133.371 12.032 133.879 11.904 134.439 11.904C134.999 11.904 135.503 12.032 135.951 12.288C136.399 12.544 136.751 12.908 137.007 13.38C137.271 13.844 137.403 14.392 137.403 15.024C137.403 15.656 137.271 16.208 137.007 16.68C136.743 17.144 136.383 17.504 135.927 17.76C135.479 18.016 134.975 18.144 134.415 18.144ZM134.415 17.28C134.759 17.28 135.079 17.196 135.375 17.028C135.671 16.86 135.911 16.608 136.095 16.272C136.279 15.936 136.371 15.52 136.371 15.024C136.371 14.528 136.279 14.112 136.095 13.776C135.919 13.44 135.683 13.188 135.387 13.02C135.091 12.852 134.775 12.768 134.439 12.768C134.095 12.768 133.775 12.852 133.479 13.02C133.183 13.188 132.943 13.44 132.759 13.776C132.575 14.112 132.483 14.528 132.483 15.024C132.483 15.52 132.575 15.936 132.759 16.272C132.943 16.608 133.179 16.86 133.467 17.028C133.763 17.196 134.079 17.28 134.415 17.28ZM138.805 18V12.048H139.717L139.801 13.188C139.985 12.796 140.265 12.484 140.641 12.252C141.017 12.02 141.481 11.904 142.033 11.904V12.96H141.757C141.405 12.96 141.081 13.024 140.785 13.152C140.489 13.272 140.253 13.48 140.077 13.776C139.901 14.072 139.813 14.48 139.813 15V18H138.805ZM70.48 38V24H72.44L77.48 33.76L82.48 24H84.46V38H82.78V27L78.1 36H76.84L72.16 27.02V38H70.48ZM88.3336 25.88C88.0003 25.88 87.7203 25.7733 87.4936 25.56C87.2803 25.3333 87.1736 25.0533 87.1736 24.72C87.1736 24.4 87.2803 24.1333 87.4936 23.92C87.7203 23.7067 88.0003 23.6 88.3336 23.6C88.6536 23.6 88.9269 23.7067 89.1536 23.92C89.3803 24.1333 89.4936 24.4 89.4936 24.72C89.4936 25.0533 89.3803 25.3333 89.1536 25.56C88.9269 25.7733 88.6536 25.88 88.3336 25.88ZM87.4936 38V28.08H89.1736V38H87.4936ZM96.6588 38.24C95.7121 38.24 94.8588 38.0267 94.0988 37.6C93.3521 37.16 92.7588 36.5533 92.3188 35.78C91.8921 34.9933 91.6788 34.08 91.6788 33.04C91.6788 32 91.8921 31.0933 92.3188 30.32C92.7588 29.5333 93.3521 28.9267 94.0988 28.5C94.8588 28.06 95.7121 27.84 96.6588 27.84C97.8321 27.84 98.8188 28.1467 99.6188 28.76C100.432 29.3733 100.945 30.1933 101.159 31.22H99.4388C99.3054 30.6067 98.9788 30.1333 98.4588 29.8C97.9388 29.4533 97.3321 29.28 96.6388 29.28C96.0788 29.28 95.5521 29.42 95.0588 29.7C94.5654 29.98 94.1654 30.4 93.8588 30.96C93.5521 31.52 93.3988 32.2133 93.3988 33.04C93.3988 33.8667 93.5521 34.56 93.8588 35.12C94.1654 35.68 94.5654 36.1067 95.0588 36.4C95.5521 36.68 96.0788 36.82 96.6388 36.82C97.3321 36.82 97.9388 36.6533 98.4588 36.32C98.9788 35.9733 99.3054 35.4867 99.4388 34.86H101.159C100.959 35.86 100.452 36.6733 99.6388 37.3C98.8254 37.9267 97.8321 38.24 96.6588 38.24ZM103.505 38V28.08H105.025L105.165 29.98C105.472 29.3267 105.938 28.8067 106.565 28.42C107.192 28.0333 107.965 27.84 108.885 27.84V29.6H108.425C107.838 29.6 107.298 29.7067 106.805 29.92C106.312 30.12 105.918 30.4667 105.625 30.96C105.332 31.4533 105.185 32.1333 105.185 33V38H103.505ZM114.92 38.24C113.986 38.24 113.146 38.0267 112.4 37.6C111.653 37.1733 111.06 36.5733 110.62 35.8C110.193 35.0133 109.98 34.0933 109.98 33.04C109.98 31.9867 110.2 31.0733 110.64 30.3C111.08 29.5133 111.673 28.9067 112.42 28.48C113.18 28.0533 114.026 27.84 114.96 27.84C115.893 27.84 116.733 28.0533 117.48 28.48C118.226 28.9067 118.813 29.5133 119.24 30.3C119.68 31.0733 119.9 31.9867 119.9 33.04C119.9 34.0933 119.68 35.0133 119.24 35.8C118.8 36.5733 118.2 37.1733 117.44 37.6C116.693 38.0267 115.853 38.24 114.92 38.24ZM114.92 36.8C115.493 36.8 116.026 36.66 116.52 36.38C117.013 36.1 117.413 35.68 117.72 35.12C118.026 34.56 118.18 33.8667 118.18 33.04C118.18 32.2133 118.026 31.52 117.72 30.96C117.426 30.4 117.033 29.98 116.54 29.7C116.046 29.42 115.52 29.28 114.96 29.28C114.386 29.28 113.853 29.42 113.36 29.7C112.866 29.98 112.466 30.4 112.16 30.96C111.853 31.52 111.7 32.2133 111.7 33.04C111.7 33.8667 111.853 34.56 112.16 35.12C112.466 35.68 112.86 36.1 113.34 36.38C113.833 36.66 114.36 36.8 114.92 36.8ZM126.035 38.24C124.849 38.24 123.862 37.94 123.075 37.34C122.289 36.74 121.829 35.9267 121.695 34.9H123.415C123.522 35.42 123.795 35.8733 124.235 36.26C124.689 36.6333 125.295 36.82 126.055 36.82C126.762 36.82 127.282 36.6733 127.615 36.38C127.949 36.0733 128.115 35.7133 128.115 35.3C128.115 34.7 127.895 34.3 127.455 34.1C127.029 33.9 126.422 33.72 125.635 33.56C125.102 33.4533 124.569 33.3 124.035 33.1C123.502 32.9 123.055 32.62 122.695 32.26C122.335 31.8867 122.155 31.4 122.155 30.8C122.155 29.9333 122.475 29.2267 123.115 28.68C123.769 28.12 124.649 27.84 125.755 27.84C126.809 27.84 127.669 28.1067 128.335 28.64C129.015 29.16 129.409 29.9067 129.515 30.88H127.855C127.789 30.3733 127.569 29.98 127.195 29.7C126.835 29.4067 126.349 29.26 125.735 29.26C125.135 29.26 124.669 29.3867 124.335 29.64C124.015 29.8933 123.855 30.2267 123.855 30.64C123.855 31.04 124.062 31.3533 124.475 31.58C124.902 31.8067 125.475 32 126.195 32.16C126.809 32.2933 127.389 32.46 127.935 32.66C128.495 32.8467 128.949 33.1333 129.295 33.52C129.655 33.8933 129.835 34.44 129.835 35.16C129.849 36.0533 129.509 36.7933 128.815 37.38C128.135 37.9533 127.209 38.24 126.035 38.24ZM136.755 38.24C135.822 38.24 134.982 38.0267 134.235 37.6C133.489 37.1733 132.895 36.5733 132.455 35.8C132.029 35.0133 131.815 34.0933 131.815 33.04C131.815 31.9867 132.035 31.0733 132.475 30.3C132.915 29.5133 133.509 28.9067 134.255 28.48C135.015 28.0533 135.862 27.84 136.795 27.84C137.729 27.84 138.569 28.0533 139.315 28.48C140.062 28.9067 140.649 29.5133 141.075 30.3C141.515 31.0733 141.735 31.9867 141.735 33.04C141.735 34.0933 141.515 35.0133 141.075 35.8C140.635 36.5733 140.035 37.1733 139.275 37.6C138.529 38.0267 137.689 38.24 136.755 38.24ZM136.755 36.8C137.329 36.8 137.862 36.66 138.355 36.38C138.849 36.1 139.249 35.68 139.555 35.12C139.862 34.56 140.015 33.8667 140.015 33.04C140.015 32.2133 139.862 31.52 139.555 30.96C139.262 30.4 138.869 29.98 138.375 29.7C137.882 29.42 137.355 29.28 136.795 29.28C136.222 29.28 135.689 29.42 135.195 29.7C134.702 29.98 134.302 30.4 133.995 30.96C133.689 31.52 133.535 32.2133 133.535 33.04C133.535 33.8667 133.689 34.56 133.995 35.12C134.302 35.68 134.695 36.1 135.175 36.38C135.669 36.66 136.195 36.8 136.755 36.8ZM144.611 38V29.5H143.111V28.08H144.611V26.36C144.611 25.4 144.851 24.7 145.331 24.26C145.811 23.82 146.511 23.6 147.431 23.6H148.431V25.04H147.691C147.185 25.04 146.825 25.1467 146.611 25.36C146.398 25.56 146.291 25.9067 146.291 26.4V28.08H148.731V29.5H146.291V38H144.611ZM154.652 38C153.745 38 153.032 37.78 152.512 37.34C151.992 36.9 151.732 36.1067 151.732 34.96V29.5H150.012V28.08H151.732L151.952 25.7H153.412V28.08H156.332V29.5H153.412V34.96C153.412 35.5867 153.538 36.0133 153.792 36.24C154.045 36.4533 154.492 36.56 155.132 36.56H156.172V38H154.652ZM163.859 38V24H172.519V25.38H165.539V30.26H171.919V31.62H165.539V36.62H172.519V38H163.859ZM179.548 38.24C178.561 38.24 177.695 38.0133 176.948 37.56C176.215 37.1067 175.641 36.4867 175.228 35.7C174.828 34.9133 174.628 34.02 174.628 33.02C174.628 32.02 174.835 31.1333 175.248 30.36C175.661 29.5733 176.235 28.96 176.968 28.52C177.701 28.0667 178.568 27.84 179.568 27.84C180.381 27.84 181.101 28.0067 181.728 28.34C182.355 28.6733 182.841 29.14 183.188 29.74V23.6H184.868V38H183.348L183.188 36.36C182.868 36.84 182.408 37.2733 181.808 37.66C181.208 38.0467 180.455 38.24 179.548 38.24ZM179.728 36.78C180.395 36.78 180.981 36.6267 181.488 36.32C182.008 36 182.408 35.56 182.688 35C182.981 34.44 183.128 33.7867 183.128 33.04C183.128 32.2933 182.981 31.64 182.688 31.08C182.408 30.52 182.008 30.0867 181.488 29.78C180.981 29.46 180.395 29.3 179.728 29.3C179.075 29.3 178.488 29.46 177.968 29.78C177.461 30.0867 177.061 30.52 176.768 31.08C176.488 31.64 176.348 32.2933 176.348 33.04C176.348 33.7867 176.488 34.44 176.768 35C177.061 35.56 177.461 36 177.968 36.32C178.488 36.6267 179.075 36.78 179.728 36.78ZM191.527 34.88C190.967 34.88 190.453 34.8067 189.987 34.66L188.987 35.6C189.133 35.7067 189.313 35.8 189.527 35.88C189.753 35.9467 190.073 36.0133 190.487 36.08C190.9 36.1333 191.48 36.1933 192.227 36.26C193.56 36.3533 194.513 36.66 195.087 37.18C195.66 37.7 195.947 38.38 195.947 39.22C195.947 39.7933 195.787 40.34 195.467 40.86C195.16 41.38 194.68 41.8067 194.027 42.14C193.387 42.4733 192.56 42.64 191.547 42.64C190.653 42.64 189.86 42.52 189.167 42.28C188.473 42.0533 187.933 41.7 187.547 41.22C187.16 40.7533 186.967 40.16 186.967 39.44C186.967 39.0667 187.067 38.66 187.267 38.22C187.467 37.7933 187.84 37.3867 188.387 37C188.093 36.88 187.84 36.7533 187.627 36.62C187.427 36.4733 187.24 36.3133 187.067 36.14V35.68L188.767 34C187.98 33.3333 187.587 32.4533 187.587 31.36C187.587 30.7067 187.74 30.1133 188.047 29.58C188.353 29.0467 188.8 28.6267 189.387 28.32C189.973 28 190.687 27.84 191.527 27.84C192.1 27.84 192.62 27.92 193.087 28.08H196.747V29.34L194.887 29.42C195.273 29.98 195.467 30.6267 195.467 31.36C195.467 32.0133 195.307 32.6067 194.987 33.14C194.68 33.6733 194.233 34.1 193.647 34.42C193.073 34.7267 192.367 34.88 191.527 34.88ZM191.527 33.5C192.233 33.5 192.793 33.32 193.207 32.96C193.633 32.5867 193.847 32.0533 193.847 31.36C193.847 30.68 193.633 30.16 193.207 29.8C192.793 29.4267 192.233 29.24 191.527 29.24C190.807 29.24 190.233 29.4267 189.807 29.8C189.393 30.16 189.187 30.68 189.187 31.36C189.187 32.0533 189.393 32.5867 189.807 32.96C190.233 33.32 190.807 33.5 191.527 33.5ZM188.607 39.28C188.607 39.9467 188.887 40.44 189.447 40.76C190.007 41.0933 190.707 41.26 191.547 41.26C192.373 41.26 193.033 41.08 193.527 40.72C194.033 40.36 194.287 39.88 194.287 39.28C194.287 38.8533 194.113 38.48 193.767 38.16C193.42 37.8533 192.78 37.6733 191.847 37.62C191.113 37.5667 190.48 37.5 189.947 37.42C189.4 37.7133 189.04 38.0267 188.867 38.36C188.693 38.7067 188.607 39.0133 188.607 39.28ZM202.711 38.24C201.764 38.24 200.924 38.0267 200.191 37.6C199.458 37.16 198.878 36.5533 198.451 35.78C198.038 35.0067 197.831 34.0933 197.831 33.04C197.831 32 198.038 31.0933 198.451 30.32C198.864 29.5333 199.438 28.9267 200.171 28.5C200.918 28.06 201.778 27.84 202.751 27.84C203.711 27.84 204.538 28.06 205.231 28.5C205.938 28.9267 206.478 29.4933 206.851 30.2C207.224 30.9067 207.411 31.6667 207.411 32.48C207.411 32.6267 207.404 32.7733 207.391 32.92C207.391 33.0667 207.391 33.2333 207.391 33.42H199.491C199.531 34.18 199.704 34.8133 200.011 35.32C200.331 35.8133 200.724 36.1867 201.191 36.44C201.671 36.6933 202.178 36.82 202.711 36.82C203.404 36.82 203.984 36.66 204.451 36.34C204.918 36.02 205.258 35.5867 205.471 35.04H207.131C206.864 35.96 206.351 36.7267 205.591 37.34C204.844 37.94 203.884 38.24 202.711 38.24ZM202.711 29.26C201.911 29.26 201.198 29.5067 200.571 30C199.958 30.48 199.604 31.1867 199.511 32.12H205.751C205.711 31.2267 205.404 30.5267 204.831 30.02C204.258 29.5133 203.551 29.26 202.711 29.26Z" fill="black" style=""/>
  <defs>
    <linearGradient id="paint0_linear_223_1613" x1="28.3395" y1="31.1291" x2="50.6306" y2="31.1291" gradientUnits="userSpaceOnUse">
      <stop stop-color="#0C59A4"/>
      <stop offset="1" stop-color="#114A8B"/>
    </linearGradient>
    <radialGradient id="paint1_radial_223_1613" cx="0" cy="0" r="1" gradientUnits="userSpaceOnUse" gradientTransform="translate(40.6513 31.3047) scale(11.9218 11.3257)">
      <stop offset="0.72" stop-opacity="0"/>
      <stop offset="0.95" stop-opacity="0.53"/>
      <stop offset="1"/>
    </radialGradient>
    <linearGradient id="paint2_linear_223_1613" x1="40.0913" y1="21.4597" x2="26.1684" y2="36.625" gradientUnits="userSpaceOnUse">
      <stop stop-color="#1B9DE2"/>
      <stop offset="0.16" stop-color="#1595DF"/>
      <stop offset="0.67" stop-color="#0680D7"/>
      <stop offset="1" stop-color="#0078D4"/>
    </linearGradient>
    <radialGradient id="paint3_radial_223_1613" cx="0" cy="0" r="1" gradientUnits="userSpaceOnUse" gradientTransform="translate(29.8238 33.8737) rotate(-81.3844) scale(17.9271 14.4833)">
      <stop offset="0.76" stop-opacity="0"/>
      <stop offset="0.95" stop-opacity="0.5"/>
      <stop offset="1"/>
    </radialGradient>
    <radialGradient id="paint4_radial_223_1613" cx="0" cy="0" r="1" gradientUnits="userSpaceOnUse" gradientTransform="translate(24.2326 14.9209) rotate(92.2906) scale(25.3224 53.9315)">
      <stop stop-color="#35C1F1"/>
      <stop offset="0.11" stop-color="#34C1ED"/>
      <stop offset="0.23" stop-color="#2FC2DF"/>
      <stop offset="0.31" stop-color="#2BC3D2"/>
      <stop offset="0.67" stop-color="#36C752"/>
    </radialGradient>
    <radialGradient id="paint5_radial_223_1613" cx="0" cy="0" r="1" gradientUnits="userSpaceOnUse" gradientTransform="translate(51.0071 18.6744) rotate(73.7398) scale(12.1667 9.89399)">
      <stop stop-color="#66EB6E"/>
      <stop offset="1" stop-color="#66EB6E" stop-opacity="0"/>
    </radialGradient>
  </defs>
</svg>
