<?xml version="1.0" encoding="utf-8"?>
<svg width="230" height="50" viewBox="0 0 230 50" fill="none" xmlns="http://www.w3.org/2000/svg">
  <rect x="0.5" y="0.5" width="229" height="49" rx="7.5" stroke="#999999" style="fill: rgb(255, 255, 255);"/>
  <path d="M49.3416 19.0886C48.6455 17.4137 47.2336 15.6054 46.1279 15.0337C46.9165 16.5611 47.4638 18.2013 47.7502 19.8962L47.7531 19.9231C45.9419 15.4074 42.8704 13.5866 40.3618 9.6219C40.2349 9.42143 40.108 9.22055 39.9845 9.00851C39.9138 8.8874 39.8571 8.77828 39.808 8.67784C39.7039 8.47636 39.6237 8.26343 39.5691 8.04337C39.5691 8.03321 39.5655 8.02338 39.5588 8.01576C39.552 8.00814 39.5428 8.00325 39.5327 8.00203C39.5228 7.99932 39.5124 7.99932 39.5025 8.00203C39.5004 8.00203 39.4971 8.00575 39.4947 8.00658C39.4922 8.0074 39.4868 8.01112 39.4831 8.01278L39.4893 8.00203C35.4654 10.3581 34.1002 14.7196 33.9745 16.9012C32.3676 17.0116 30.8313 17.6038 29.5659 18.6004C29.4339 18.4886 29.2959 18.384 29.1525 18.2871C28.7875 17.0095 28.772 15.6573 29.1075 14.3716C27.6298 15.0874 26.3167 16.1022 25.2515 17.3517H25.244C24.6091 16.547 24.6538 13.8933 24.6901 13.339C24.5023 13.4145 24.323 13.5097 24.1553 13.623C23.5948 14.023 23.0709 14.4719 22.5896 14.9643C22.0411 15.5204 21.5402 16.1214 21.092 16.7611V16.7635V16.7607C20.0621 18.2208 19.3316 19.8705 18.9427 21.6145L18.9212 21.7203C18.891 21.8612 18.7823 22.5672 18.7637 22.7206C18.7637 22.7326 18.7612 22.7437 18.76 22.7557C18.6198 23.4846 18.5329 24.2227 18.5 24.9642L18.5 25.0468C18.5035 29.058 20.0116 32.9219 22.7262 35.8749C25.4408 38.8279 29.1644 40.6552 33.161 40.9956C37.1577 41.336 41.1367 40.1647 44.3115 37.7133C47.4864 35.2618 49.6262 31.7086 50.308 27.7558C50.3348 27.5492 50.3567 27.3446 50.3807 27.1358C50.7107 24.4087 50.3535 21.6424 49.3416 19.0886V19.0886ZM30.8778 31.6284C30.9526 31.6644 31.0229 31.7032 31.0998 31.7375L31.1109 31.7446C31.0332 31.7074 30.9555 31.6686 30.8778 31.6284V31.6284ZM47.7544 19.9268V19.9115L47.7573 19.9285L47.7544 19.9268Z" fill="url(#paint0_linear_303_1694)"/>
  <path d="M49.3416 19.0885C48.6455 17.4137 47.2336 15.6053 46.1279 15.0337C46.9165 16.561 47.4638 18.2013 47.7502 19.8962V19.9115L47.7531 19.9284C48.9879 23.4618 48.8093 27.3357 47.2547 30.7405C45.4186 34.68 40.9744 38.7179 34.0179 38.5216C26.5014 38.3087 19.8818 32.7312 18.6443 25.4258C18.419 24.2739 18.6443 23.6898 18.7575 22.7536C18.603 23.4808 18.5168 24.2209 18.5 24.9641V25.0468C18.5035 29.0579 20.0116 32.9218 22.7262 35.8749C25.4408 38.8279 29.1644 40.6551 33.161 40.9955C37.1577 41.3359 41.1367 40.1647 44.3115 37.7132C47.4864 35.2618 49.6262 31.7086 50.308 27.7558C50.3348 27.5491 50.3567 27.3445 50.3807 27.1358C50.7107 24.4087 50.3535 21.6424 49.3416 19.0885V19.0885Z" fill="url(#paint1_radial_303_1694)"/>
  <path d="M49.3416 19.0885C48.6455 17.4137 47.2336 15.6053 46.1279 15.0337C46.9165 16.561 47.4638 18.2013 47.7502 19.8962V19.9115L47.7531 19.9284C48.9879 23.4618 48.8093 27.3357 47.2547 30.7405C45.4186 34.68 40.9744 38.7179 34.0179 38.5216C26.5014 38.3087 19.8818 32.7312 18.6443 25.4258C18.419 24.2739 18.6443 23.6898 18.7575 22.7536C18.603 23.4808 18.5168 24.2209 18.5 24.9641V25.0468C18.5035 29.0579 20.0116 32.9218 22.7262 35.8749C25.4408 38.8279 29.1644 40.6551 33.161 40.9955C37.1577 41.3359 41.1367 40.1647 44.3115 37.7132C47.4864 35.2618 49.6262 31.7086 50.308 27.7558C50.3348 27.5491 50.3567 27.3445 50.3807 27.1358C50.7107 24.4087 50.3535 21.6424 49.3416 19.0885V19.0885Z" fill="url(#paint2_radial_303_1694)"/>
  <path d="M41.5568 20.9717C41.5915 20.996 41.6238 21.0204 41.6564 21.0448C41.254 20.3313 40.7531 19.678 40.1684 19.1042C35.1893 14.1243 38.8635 8.30658 39.4831 8.01105L39.4893 8.00195C35.4654 10.358 34.1002 14.7195 33.9745 16.9011C34.1614 16.8883 34.3465 16.8726 34.5375 16.8726C35.9652 16.8752 37.3668 17.2559 38.5997 17.9758C39.8327 18.6958 40.8529 19.7295 41.5568 20.9717V20.9717Z" fill="url(#paint3_radial_303_1694)"/>
  <path d="M34.5478 21.9661C34.5214 22.3646 33.1136 23.7389 32.6213 23.7389C28.0659 23.7389 27.3264 26.4946 27.3264 26.4946C27.5281 28.8151 29.1451 30.7264 31.0998 31.7374C31.1891 31.7837 31.2796 31.8255 31.3701 31.8664C31.5269 31.9358 31.6837 32 31.8405 32.059C32.5113 32.2964 33.2139 32.432 33.9249 32.4612C41.9094 32.8357 43.4561 22.9131 37.6942 20.0338C39.0534 19.8569 40.43 20.1911 41.5568 20.9716C40.8529 19.7294 39.8327 18.6958 38.5997 17.9758C37.3668 17.2558 35.9652 16.8752 34.5375 16.8726C34.3474 16.8726 34.1614 16.8883 33.9745 16.9011C32.3676 17.0115 30.8313 17.6037 29.5659 18.6003C29.8102 18.807 30.0859 19.0831 30.6666 19.6556C31.7537 20.7265 34.5416 21.8359 34.5478 21.9661V21.9661Z" fill="url(#paint4_radial_303_1694)"/>
  <path d="M34.5478 21.9661C34.5214 22.3646 33.1136 23.7389 32.6213 23.7389C28.0659 23.7389 27.3264 26.4946 27.3264 26.4946C27.5281 28.8151 29.1451 30.7264 31.0998 31.7374C31.1891 31.7837 31.2796 31.8255 31.3701 31.8664C31.5269 31.9358 31.6837 32 31.8405 32.059C32.5113 32.2964 33.2139 32.432 33.9249 32.4612C41.9094 32.8357 43.4561 22.9131 37.6942 20.0338C39.0534 19.8569 40.43 20.1911 41.5568 20.9716C40.8529 19.7294 39.8327 18.6958 38.5997 17.9758C37.3668 17.2558 35.9652 16.8752 34.5375 16.8726C34.3474 16.8726 34.1614 16.8883 33.9745 16.9011C32.3676 17.0115 30.8313 17.6037 29.5659 18.6003C29.8102 18.807 30.0859 19.0831 30.6666 19.6556C31.7537 20.7265 34.5416 21.8359 34.5478 21.9661V21.9661Z" fill="url(#paint5_radial_303_1694)"/>
  <path d="M28.819 18.0676C28.9488 18.1503 29.0558 18.2222 29.1496 18.2871C28.7846 17.0095 28.7691 15.6573 29.1046 14.3716C27.6269 15.0875 26.3138 16.1022 25.2486 17.3517C25.3267 17.3497 27.6505 17.3079 28.819 18.0676V18.0676Z" fill="url(#paint6_radial_303_1694)"/>
  <path d="M18.6463 25.4259C19.8826 32.7313 26.5035 38.3088 34.02 38.5217C40.9765 38.7185 45.4207 34.6802 47.2567 30.7406C48.8113 27.3358 48.99 23.462 47.7552 19.9286V19.9133C47.7552 19.9013 47.7527 19.8942 47.7552 19.898L47.7581 19.9248C48.3264 23.6354 46.4391 27.2302 43.4887 29.661L43.4796 29.6817C37.7309 34.3635 32.2294 32.5064 31.1159 31.7484C31.0382 31.7112 30.9605 31.6724 30.8828 31.6322C27.531 30.0301 26.1463 26.9764 26.4431 24.3575C25.6475 24.3692 24.8655 24.15 24.192 23.7263C23.5184 23.3026 22.9822 22.6927 22.6483 21.9704C23.5281 21.4314 24.5313 21.1267 25.5623 21.0853C26.5933 21.0439 27.6177 21.2673 28.5379 21.734C30.4351 22.5953 32.5939 22.6801 34.5528 21.9704C34.5466 21.8402 31.7586 20.7304 30.6715 19.6599C30.0908 19.0874 29.8151 18.8117 29.5708 18.6046C29.4388 18.4928 29.3008 18.3882 29.1575 18.2913C29.0624 18.2264 28.9554 18.1562 28.8268 18.0718C27.6583 17.3121 25.3345 17.3539 25.2577 17.3559H25.2502C24.6153 16.5512 24.66 13.8975 24.6963 13.3433C24.5085 13.4187 24.3292 13.5139 24.1615 13.6272C23.601 14.0272 23.0771 14.4761 22.5958 14.9685C22.0453 15.523 21.5423 16.1227 21.092 16.7611V16.7636V16.7607C20.0621 18.2209 19.3316 19.8706 18.9427 21.6146C18.9348 21.6472 18.3657 24.1355 18.6463 25.4259V25.4259Z" fill="url(#paint7_radial_303_1694)"/>
  <path d="M40.1692 19.1043C40.7541 19.6787 41.255 20.3327 41.6572 21.047C41.7453 21.1135 41.8275 21.1796 41.8974 21.2437C45.5294 24.5917 43.6264 29.3245 43.4846 29.6613C46.435 27.2305 48.3207 23.6357 47.754 19.9252C45.9419 15.4074 42.8704 13.5866 40.3618 9.6219C40.2349 9.42143 40.1081 9.22055 39.9845 9.00851C39.9138 8.8874 39.8572 8.77828 39.808 8.67784C39.7039 8.47636 39.6237 8.26343 39.5691 8.04337C39.5691 8.03321 39.5655 8.02338 39.5588 8.01576C39.552 8.00814 39.5428 8.00325 39.5327 8.00203C39.5228 7.99932 39.5124 7.99932 39.5025 8.00203C39.5004 8.00203 39.4971 8.00575 39.4947 8.00658C39.4922 8.0074 39.4868 8.01112 39.4831 8.01278C38.8635 8.30666 35.1893 14.1244 40.1692 19.1043V19.1043Z" fill="url(#paint8_radial_303_1694)"/>
  <path d="M41.8949 21.2416C41.825 21.1775 41.7428 21.1114 41.6548 21.0448C41.6221 21.0204 41.5899 20.996 41.5551 20.9717C40.4283 20.1912 39.0518 19.8569 37.6925 20.0338C43.4544 22.9148 41.9085 32.8357 33.9233 32.4612C33.2123 32.432 32.5096 32.2964 31.8388 32.059C31.682 32.0003 31.5252 31.9361 31.3684 31.8664C31.2779 31.8251 31.1874 31.7837 31.0981 31.7374L31.1093 31.7445C32.2228 32.5046 37.7227 34.3617 43.473 29.6778L43.4821 29.6571C43.6255 29.3223 45.5286 24.5884 41.8949 21.2416V21.2416Z" fill="url(#paint9_radial_303_1694)"/>
  <path d="M27.3264 26.4947C27.3264 26.4947 28.0659 23.739 32.6213 23.739C33.1135 23.739 34.5226 22.3646 34.5478 21.9662C32.5889 22.6758 30.4301 22.591 28.5329 21.7297C27.6127 21.263 26.5883 21.0396 25.5573 21.081C24.5263 21.1224 23.5231 21.4271 22.6433 21.9662C22.9772 22.6884 23.5135 23.2983 24.187 23.722C24.8606 24.1457 25.6425 24.3649 26.4381 24.3532C26.1414 26.9725 27.5261 30.0262 30.8778 31.6279C30.9526 31.6639 31.0229 31.7027 31.0998 31.737C29.1434 30.7264 27.5281 28.8152 27.3264 26.4947Z" fill="url(#paint10_radial_303_1694)"/>
  <path d="M49.3416 19.0886C48.6455 17.4137 47.2336 15.6054 46.1279 15.0337C46.9165 16.5611 47.4638 18.2013 47.7502 19.8962L47.7531 19.9231C45.9419 15.4074 42.8704 13.5866 40.3618 9.6219C40.2349 9.42143 40.108 9.22055 39.9845 9.00851C39.9138 8.8874 39.8571 8.77828 39.808 8.67784C39.7039 8.47636 39.6237 8.26343 39.5691 8.04337C39.5691 8.03321 39.5655 8.02338 39.5588 8.01576C39.552 8.00814 39.5428 8.00325 39.5327 8.00203C39.5228 7.99932 39.5124 7.99932 39.5025 8.00203C39.5004 8.00203 39.4971 8.00575 39.4947 8.00658C39.4922 8.0074 39.4868 8.01112 39.4831 8.01278L39.4893 8.00203C35.4654 10.3581 34.1002 14.7196 33.9745 16.9012C34.1614 16.8884 34.3465 16.8727 34.5375 16.8727C35.9652 16.8753 37.3668 17.2559 38.5997 17.9759C39.8327 18.6959 40.8529 19.7296 41.5568 20.9717C40.43 20.1912 39.0534 19.857 37.6942 20.0339C43.4561 22.9148 41.9102 32.8358 33.9249 32.4613C33.2139 32.4321 32.5113 32.2965 31.8405 32.0591C31.6837 32.0004 31.5269 31.9362 31.3701 31.8665C31.2796 31.8252 31.189 31.7838 31.0998 31.7375L31.1109 31.7446C31.0332 31.7074 30.9555 31.6686 30.8778 31.6284C30.9526 31.6644 31.0229 31.7032 31.0998 31.7375C29.1434 30.7265 27.5281 28.8152 27.3264 26.4948C27.3264 26.4948 28.0659 23.739 32.6213 23.739C33.1135 23.739 34.5226 22.3647 34.5478 21.9662C34.5416 21.836 31.7537 20.7262 30.6666 19.6557C30.0859 19.0832 29.8102 18.8075 29.5659 18.6004C29.4339 18.4886 29.2959 18.384 29.1525 18.2871C28.7875 17.0095 28.772 15.6573 29.1075 14.3716C27.6298 15.0874 26.3167 16.1022 25.2515 17.3517H25.244C24.6091 16.547 24.6538 13.8933 24.6901 13.339C24.5023 13.4145 24.323 13.5097 24.1553 13.623C23.5948 14.023 23.0709 14.4719 22.5896 14.9643C22.0411 15.5204 21.5402 16.1214 21.092 16.7611V16.7635V16.7607C20.0621 18.2208 19.3316 19.8705 18.9427 21.6145L18.9212 21.7203C18.891 21.8612 18.7559 22.5771 18.7364 22.7309C18.7364 22.7425 18.7364 22.7189 18.7364 22.7309C18.6128 23.4699 18.5339 24.2157 18.5 24.9642V25.0468C18.5035 29.058 20.0116 32.9219 22.7262 35.8749C25.4408 38.8279 29.1644 40.6552 33.161 40.9956C37.1577 41.336 41.1367 40.1647 44.3115 37.7133C47.4864 35.2618 49.6262 31.7086 50.308 27.7558C50.3348 27.5492 50.3567 27.3446 50.3807 27.1358C50.7107 24.4087 50.3535 21.6424 49.3416 19.0886V19.0886ZM47.7523 19.9115L47.7552 19.9285L47.7523 19.9115Z" fill="url(#paint11_linear_303_1694)"/>
  <path d="M67.388 18V9.6H69.968C71.448 9.6 72.536 9.976 73.232 10.728C73.936 11.48 74.288 12.512 74.288 13.824C74.288 15.112 73.936 16.132 73.232 16.884C72.536 17.628 71.448 18 69.968 18H67.388ZM68.396 17.16H69.944C70.76 17.16 71.408 17.028 71.888 16.764C72.376 16.492 72.724 16.108 72.932 15.612C73.14 15.108 73.244 14.512 73.244 13.824C73.244 13.12 73.14 12.516 72.932 12.012C72.724 11.508 72.376 11.12 71.888 10.848C71.408 10.576 70.76 10.44 69.944 10.44H68.396V17.16ZM78.3955 18.144C77.8355 18.144 77.3315 18.016 76.8835 17.76C76.4355 17.504 76.0795 17.144 75.8155 16.68C75.5595 16.208 75.4315 15.656 75.4315 15.024C75.4315 14.392 75.5635 13.844 75.8275 13.38C76.0915 12.908 76.4475 12.544 76.8955 12.288C77.3515 12.032 77.8595 11.904 78.4195 11.904C78.9795 11.904 79.4835 12.032 79.9315 12.288C80.3795 12.544 80.7315 12.908 80.9875 13.38C81.2515 13.844 81.3835 14.392 81.3835 15.024C81.3835 15.656 81.2515 16.208 80.9875 16.68C80.7235 17.144 80.3635 17.504 79.9075 17.76C79.4595 18.016 78.9555 18.144 78.3955 18.144ZM78.3955 17.28C78.7395 17.28 79.0595 17.196 79.3555 17.028C79.6515 16.86 79.8915 16.608 80.0755 16.272C80.2595 15.936 80.3515 15.52 80.3515 15.024C80.3515 14.528 80.2595 14.112 80.0755 13.776C79.8995 13.44 79.6635 13.188 79.3675 13.02C79.0715 12.852 78.7555 12.768 78.4195 12.768C78.0755 12.768 77.7555 12.852 77.4595 13.02C77.1635 13.188 76.9235 13.44 76.7395 13.776C76.5555 14.112 76.4635 14.528 76.4635 15.024C76.4635 15.52 76.5555 15.936 76.7395 16.272C76.9235 16.608 77.1595 16.86 77.4475 17.028C77.7435 17.196 78.0595 17.28 78.3955 17.28ZM83.7624 18L82.0224 12.048H83.0304L84.2904 16.716L85.6824 12.048H86.8224L88.2264 16.716L89.4744 12.048H90.4944L88.7544 18H87.7224L86.2584 13.092L84.7944 18H83.7624ZM91.6093 18V12.048H92.5213L92.5813 13.116C92.7733 12.74 93.0493 12.444 93.4093 12.228C93.7693 12.012 94.1773 11.904 94.6333 11.904C95.3373 11.904 95.8973 12.12 96.3133 12.552C96.7373 12.976 96.9492 13.632 96.9492 14.52V18H95.9413V14.628C95.9413 13.388 95.4293 12.768 94.4053 12.768C93.8933 12.768 93.4653 12.956 93.1213 13.332C92.7853 13.7 92.6173 14.228 92.6173 14.916V18H91.6093ZM98.4764 18V9.36H99.4844V18H98.4764ZM103.849 18.144C103.289 18.144 102.785 18.016 102.337 17.76C101.889 17.504 101.533 17.144 101.269 16.68C101.013 16.208 100.885 15.656 100.885 15.024C100.885 14.392 101.017 13.844 101.281 13.38C101.545 12.908 101.901 12.544 102.349 12.288C102.805 12.032 103.313 11.904 103.873 11.904C104.433 11.904 104.937 12.032 105.385 12.288C105.833 12.544 106.185 12.908 106.441 13.38C106.705 13.844 106.837 14.392 106.837 15.024C106.837 15.656 106.705 16.208 106.441 16.68C106.177 17.144 105.817 17.504 105.361 17.76C104.913 18.016 104.409 18.144 103.849 18.144ZM103.849 17.28C104.193 17.28 104.513 17.196 104.809 17.028C105.105 16.86 105.345 16.608 105.529 16.272C105.713 15.936 105.805 15.52 105.805 15.024C105.805 14.528 105.713 14.112 105.529 13.776C105.353 13.44 105.117 13.188 104.821 13.02C104.525 12.852 104.209 12.768 103.873 12.768C103.529 12.768 103.209 12.852 102.913 13.02C102.617 13.188 102.377 13.44 102.193 13.776C102.009 14.112 101.917 14.528 101.917 15.024C101.917 15.52 102.009 15.936 102.193 16.272C102.377 16.608 102.613 16.86 102.901 17.028C103.197 17.196 103.513 17.28 103.849 17.28ZM110.218 18.144C109.722 18.144 109.31 18.06 108.982 17.892C108.654 17.724 108.41 17.5 108.25 17.22C108.09 16.94 108.01 16.636 108.01 16.308C108.01 15.7 108.242 15.232 108.706 14.904C109.17 14.576 109.802 14.412 110.602 14.412H112.21V14.34C112.21 13.82 112.074 13.428 111.802 13.164C111.53 12.892 111.166 12.756 110.71 12.756C110.318 12.756 109.978 12.856 109.69 13.056C109.41 13.248 109.234 13.532 109.162 13.908H108.13C108.17 13.476 108.314 13.112 108.562 12.816C108.818 12.52 109.134 12.296 109.51 12.144C109.886 11.984 110.286 11.904 110.71 11.904C111.542 11.904 112.166 12.128 112.582 12.576C113.006 13.016 113.218 13.604 113.218 14.34V18H112.318L112.258 16.932C112.09 17.268 111.842 17.556 111.514 17.796C111.194 18.028 110.762 18.144 110.218 18.144ZM110.374 17.292C110.758 17.292 111.086 17.192 111.358 16.992C111.638 16.792 111.85 16.532 111.994 16.212C112.138 15.892 112.21 15.556 112.21 15.204V15.192H110.686C110.094 15.192 109.674 15.296 109.426 15.504C109.186 15.704 109.066 15.956 109.066 16.26C109.066 16.572 109.178 16.824 109.402 17.016C109.634 17.2 109.958 17.292 110.374 17.292ZM117.43 18.144C116.838 18.144 116.318 18.008 115.87 17.736C115.43 17.464 115.086 17.092 114.838 16.62C114.598 16.148 114.478 15.612 114.478 15.012C114.478 14.412 114.602 13.88 114.85 13.416C115.098 12.944 115.442 12.576 115.882 12.312C116.322 12.04 116.842 11.904 117.442 11.904C117.93 11.904 118.362 12.004 118.738 12.204C119.114 12.404 119.406 12.684 119.614 13.044V9.36H120.622V18H119.71L119.614 17.016C119.422 17.304 119.146 17.564 118.786 17.796C118.426 18.028 117.974 18.144 117.43 18.144ZM117.538 17.268C117.938 17.268 118.29 17.176 118.594 16.992C118.906 16.8 119.146 16.536 119.314 16.2C119.49 15.864 119.578 15.472 119.578 15.024C119.578 14.576 119.49 14.184 119.314 13.848C119.146 13.512 118.906 13.252 118.594 13.068C118.29 12.876 117.938 12.78 117.538 12.78C117.146 12.78 116.794 12.876 116.482 13.068C116.178 13.252 115.938 13.512 115.762 13.848C115.594 14.184 115.51 14.576 115.51 15.024C115.51 15.472 115.594 15.864 115.762 16.2C115.938 16.536 116.178 16.8 116.482 16.992C116.794 17.176 117.146 17.268 117.538 17.268ZM125.765 18V12.9H124.865V12.048H125.765V11.016C125.765 10.44 125.909 10.02 126.197 9.756C126.485 9.492 126.905 9.36 127.457 9.36H128.057V10.224H127.613C127.309 10.224 127.093 10.288 126.965 10.416C126.837 10.536 126.773 10.744 126.773 11.04V12.048H128.237V12.9H126.773V18H125.765ZM131.915 18.144C131.355 18.144 130.851 18.016 130.403 17.76C129.955 17.504 129.599 17.144 129.335 16.68C129.079 16.208 128.951 15.656 128.951 15.024C128.951 14.392 129.083 13.844 129.347 13.38C129.611 12.908 129.967 12.544 130.415 12.288C130.871 12.032 131.379 11.904 131.939 11.904C132.499 11.904 133.003 12.032 133.451 12.288C133.899 12.544 134.251 12.908 134.507 13.38C134.771 13.844 134.903 14.392 134.903 15.024C134.903 15.656 134.771 16.208 134.507 16.68C134.243 17.144 133.883 17.504 133.427 17.76C132.979 18.016 132.475 18.144 131.915 18.144ZM131.915 17.28C132.259 17.28 132.579 17.196 132.875 17.028C133.171 16.86 133.411 16.608 133.595 16.272C133.779 15.936 133.871 15.52 133.871 15.024C133.871 14.528 133.779 14.112 133.595 13.776C133.419 13.44 133.183 13.188 132.887 13.02C132.591 12.852 132.275 12.768 131.939 12.768C131.595 12.768 131.275 12.852 130.979 13.02C130.683 13.188 130.443 13.44 130.259 13.776C130.075 14.112 129.983 14.528 129.983 15.024C129.983 15.52 130.075 15.936 130.259 16.272C130.443 16.608 130.679 16.86 130.967 17.028C131.263 17.196 131.579 17.28 131.915 17.28ZM136.305 18V12.048H137.217L137.301 13.188C137.485 12.796 137.765 12.484 138.141 12.252C138.517 12.02 138.981 11.904 139.533 11.904V12.96H139.257C138.905 12.96 138.581 13.024 138.285 13.152C137.989 13.272 137.753 13.48 137.577 13.776C137.401 14.072 137.313 14.48 137.313 15V18H136.305ZM67.98 38V24H69.94L74.98 33.76L79.98 24H81.96V38H80.28V27L75.6 36H74.34L69.66 27.02V38H67.98ZM89.3336 38.24C88.4003 38.24 87.5603 38.0267 86.8136 37.6C86.0669 37.1733 85.4736 36.5733 85.0336 35.8C84.6069 35.0133 84.3936 34.0933 84.3936 33.04C84.3936 31.9867 84.6136 31.0733 85.0536 30.3C85.4936 29.5133 86.0869 28.9067 86.8336 28.48C87.5936 28.0533 88.4403 27.84 89.3736 27.84C90.3069 27.84 91.1469 28.0533 91.8936 28.48C92.6403 28.9067 93.2269 29.5133 93.6536 30.3C94.0936 31.0733 94.3136 31.9867 94.3136 33.04C94.3136 34.0933 94.0936 35.0133 93.6536 35.8C93.2136 36.5733 92.6136 37.1733 91.8536 37.6C91.1069 38.0267 90.2669 38.24 89.3336 38.24ZM89.3336 36.8C89.9069 36.8 90.4403 36.66 90.9336 36.38C91.4269 36.1 91.8269 35.68 92.1336 35.12C92.4403 34.56 92.5936 33.8667 92.5936 33.04C92.5936 32.2133 92.4403 31.52 92.1336 30.96C91.8403 30.4 91.4469 29.98 90.9536 29.7C90.4603 29.42 89.9336 29.28 89.3736 29.28C88.8003 29.28 88.2669 29.42 87.7736 29.7C87.2803 29.98 86.8803 30.4 86.5736 30.96C86.2669 31.52 86.1136 32.2133 86.1136 33.04C86.1136 33.8667 86.2669 34.56 86.5736 35.12C86.8803 35.68 87.2736 36.1 87.7536 36.38C88.2469 36.66 88.7736 36.8 89.3336 36.8ZM95.9695 38V36.62L101.49 29.48H96.0695V28.08H103.37V29.46L97.8495 36.6H103.47V38H95.9695ZM106.713 25.88C106.379 25.88 106.099 25.7733 105.873 25.56C105.659 25.3333 105.553 25.0533 105.553 24.72C105.553 24.4 105.659 24.1333 105.873 23.92C106.099 23.7067 106.379 23.6 106.713 23.6C107.033 23.6 107.306 23.7067 107.533 23.92C107.759 24.1333 107.873 24.4 107.873 24.72C107.873 25.0533 107.759 25.3333 107.533 25.56C107.306 25.7733 107.033 25.88 106.713 25.88ZM105.873 38V28.08H107.553V38H105.873ZM110.478 38V23.6H112.158V38H110.478ZM114.911 38V23.6H116.591V38H114.911ZM122.645 38.24C121.818 38.24 121.132 38.1 120.585 37.82C120.038 37.54 119.632 37.1667 119.365 36.7C119.098 36.2333 118.965 35.7267 118.965 35.18C118.965 34.1667 119.352 33.3867 120.125 32.84C120.898 32.2933 121.952 32.02 123.285 32.02H125.965V31.9C125.965 31.0333 125.738 30.38 125.285 29.94C124.832 29.4867 124.225 29.26 123.465 29.26C122.812 29.26 122.245 29.4267 121.765 29.76C121.298 30.08 121.005 30.5533 120.885 31.18H119.165C119.232 30.46 119.472 29.8533 119.885 29.36C120.312 28.8667 120.838 28.4933 121.465 28.24C122.092 27.9733 122.758 27.84 123.465 27.84C124.852 27.84 125.892 28.2133 126.585 28.96C127.292 29.6933 127.645 30.6733 127.645 31.9V38H126.145L126.045 36.22C125.765 36.78 125.352 37.26 124.805 37.66C124.272 38.0467 123.552 38.24 122.645 38.24ZM122.905 36.82C123.545 36.82 124.092 36.6533 124.545 36.32C125.012 35.9867 125.365 35.5533 125.605 35.02C125.845 34.4867 125.965 33.9267 125.965 33.34V33.32H123.425C122.438 33.32 121.738 33.4933 121.325 33.84C120.925 34.1733 120.725 34.5933 120.725 35.1C120.725 35.62 120.912 36.04 121.285 36.36C121.672 36.6667 122.212 36.82 122.905 36.82ZM135.558 38V24H144.078V25.38H137.238V30.3H143.058V31.66H137.238V38H135.558ZM147.162 25.88C146.828 25.88 146.548 25.7733 146.322 25.56C146.108 25.3333 146.002 25.0533 146.002 24.72C146.002 24.4 146.108 24.1333 146.322 23.92C146.548 23.7067 146.828 23.6 147.162 23.6C147.482 23.6 147.755 23.7067 147.982 23.92C148.208 24.1333 148.322 24.4 148.322 24.72C148.322 25.0533 148.208 25.3333 147.982 25.56C147.755 25.7733 147.482 25.88 147.162 25.88ZM146.322 38V28.08H148.002V38H146.322ZM150.927 38V28.08H152.447L152.587 29.98C152.894 29.3267 153.36 28.8067 153.987 28.42C154.614 28.0333 155.387 27.84 156.307 27.84V29.6H155.847C155.26 29.6 154.72 29.7067 154.227 29.92C153.734 30.12 153.34 30.4667 153.047 30.96C152.754 31.4533 152.607 32.1333 152.607 33V38H150.927ZM162.281 38.24C161.335 38.24 160.495 38.0267 159.761 37.6C159.028 37.16 158.448 36.5533 158.021 35.78C157.608 35.0067 157.401 34.0933 157.401 33.04C157.401 32 157.608 31.0933 158.021 30.32C158.435 29.5333 159.008 28.9267 159.741 28.5C160.488 28.06 161.348 27.84 162.321 27.84C163.281 27.84 164.108 28.06 164.801 28.5C165.508 28.9267 166.048 29.4933 166.421 30.2C166.795 30.9067 166.981 31.6667 166.981 32.48C166.981 32.6267 166.975 32.7733 166.961 32.92C166.961 33.0667 166.961 33.2333 166.961 33.42H159.061C159.101 34.18 159.275 34.8133 159.581 35.32C159.901 35.8133 160.295 36.1867 160.761 36.44C161.241 36.6933 161.748 36.82 162.281 36.82C162.975 36.82 163.555 36.66 164.021 36.34C164.488 36.02 164.828 35.5867 165.041 35.04H166.701C166.435 35.96 165.921 36.7267 165.161 37.34C164.415 37.94 163.455 38.24 162.281 38.24ZM162.281 29.26C161.481 29.26 160.768 29.5067 160.141 30C159.528 30.48 159.175 31.1867 159.081 32.12H165.321C165.281 31.2267 164.975 30.5267 164.401 30.02C163.828 29.5133 163.121 29.26 162.281 29.26ZM169.748 38V29.5H168.248V28.08H169.748V26.36C169.748 25.4 169.988 24.7 170.468 24.26C170.948 23.82 171.648 23.6 172.568 23.6H173.568V25.04H172.828C172.321 25.04 171.961 25.1467 171.748 25.36C171.535 25.56 171.428 25.9067 171.428 26.4V28.08H173.868V29.5H171.428V38H169.748ZM179.998 38.24C179.064 38.24 178.224 38.0267 177.478 37.6C176.731 37.1733 176.138 36.5733 175.698 35.8C175.271 35.0133 175.058 34.0933 175.058 33.04C175.058 31.9867 175.278 31.0733 175.718 30.3C176.158 29.5133 176.751 28.9067 177.498 28.48C178.258 28.0533 179.104 27.84 180.038 27.84C180.971 27.84 181.811 28.0533 182.558 28.48C183.304 28.9067 183.891 29.5133 184.318 30.3C184.758 31.0733 184.978 31.9867 184.978 33.04C184.978 34.0933 184.758 35.0133 184.318 35.8C183.878 36.5733 183.278 37.1733 182.518 37.6C181.771 38.0267 180.931 38.24 179.998 38.24ZM179.998 36.8C180.571 36.8 181.104 36.66 181.598 36.38C182.091 36.1 182.491 35.68 182.798 35.12C183.104 34.56 183.258 33.8667 183.258 33.04C183.258 32.2133 183.104 31.52 182.798 30.96C182.504 30.4 182.111 29.98 181.618 29.7C181.124 29.42 180.598 29.28 180.038 29.28C179.464 29.28 178.931 29.42 178.438 29.7C177.944 29.98 177.544 30.4 177.238 30.96C176.931 31.52 176.778 32.2133 176.778 33.04C176.778 33.8667 176.931 34.56 177.238 35.12C177.544 35.68 177.938 36.1 178.418 36.38C178.911 36.66 179.438 36.8 179.998 36.8ZM185.884 38L189.324 33.04L185.884 28.08H187.704L190.484 32.18L193.284 28.08H195.084L191.644 33.04L195.084 38H193.284L190.484 33.9L187.704 38H185.884Z" fill="black"/>
  <defs>
    <linearGradient id="paint0_linear_303_1694" x1="47.2212" y1="13.1208" x2="20.6274" y2="38.7787" gradientUnits="userSpaceOnUse">
      <stop offset="0.048" stop-color="#FFF44F"/>
      <stop offset="0.111" stop-color="#FFE847"/>
      <stop offset="0.225" stop-color="#FFC830"/>
      <stop offset="0.368" stop-color="#FF980E"/>
      <stop offset="0.401" stop-color="#FF8B16"/>
      <stop offset="0.462" stop-color="#FF672A"/>
      <stop offset="0.534" stop-color="#FF3647"/>
      <stop offset="0.705" stop-color="#E31587"/>
    </linearGradient>
    <radialGradient id="paint1_radial_303_1694" cx="0" cy="0" r="1" gradientUnits="userSpaceOnUse" gradientTransform="translate(45.9923 11.6682) scale(33.3964)">
      <stop offset="0.129" stop-color="#FFBD4F"/>
      <stop offset="0.186" stop-color="#FFAC31"/>
      <stop offset="0.247" stop-color="#FF9D17"/>
      <stop offset="0.283" stop-color="#FF980E"/>
      <stop offset="0.403" stop-color="#FF563B"/>
      <stop offset="0.467" stop-color="#FF3750"/>
      <stop offset="0.71" stop-color="#F5156C"/>
      <stop offset="0.782" stop-color="#EB0878"/>
      <stop offset="0.86" stop-color="#E50080"/>
    </radialGradient>
    <radialGradient id="paint2_radial_303_1694" cx="0" cy="0" r="1" gradientUnits="userSpaceOnUse" gradientTransform="translate(33.789 25.3217) scale(33.3964)">
      <stop offset="0.3" stop-color="#960E18"/>
      <stop offset="0.351" stop-color="#B11927" stop-opacity="0.74"/>
      <stop offset="0.435" stop-color="#DB293D" stop-opacity="0.343"/>
      <stop offset="0.497" stop-color="#F5334B" stop-opacity="0.094"/>
      <stop offset="0.53" stop-color="#FF3750" stop-opacity="0"/>
    </radialGradient>
    <radialGradient id="paint3_radial_303_1694" cx="0" cy="0" r="1" gradientUnits="userSpaceOnUse" gradientTransform="translate(37.8152 4.08926) scale(24.1943)">
      <stop offset="0.132" stop-color="#FFF44F"/>
      <stop offset="0.252" stop-color="#FFDC3E"/>
      <stop offset="0.506" stop-color="#FF9D12"/>
      <stop offset="0.526" stop-color="#FF980E"/>
    </radialGradient>
    <radialGradient id="paint4_radial_303_1694" cx="0" cy="0" r="1" gradientUnits="userSpaceOnUse" gradientTransform="translate(30.095 34.0449) scale(15.9015)">
      <stop offset="0.353" stop-color="#3A8EE6"/>
      <stop offset="0.472" stop-color="#5C79F0"/>
      <stop offset="0.669" stop-color="#9059FF"/>
      <stop offset="1" stop-color="#C139E6"/>
    </radialGradient>
    <radialGradient id="paint5_radial_303_1694" cx="0" cy="0" r="1" gradientUnits="userSpaceOnUse" gradientTransform="translate(35.6139 22.5846) rotate(-13.5916) scale(8.43088 9.87046)">
      <stop offset="0.206" stop-color="#9059FF" stop-opacity="0"/>
      <stop offset="0.278" stop-color="#8C4FF3" stop-opacity="0.064"/>
      <stop offset="0.747" stop-color="#7716A8" stop-opacity="0.45"/>
      <stop offset="0.975" stop-color="#6E008B" stop-opacity="0.6"/>
    </radialGradient>
    <radialGradient id="paint6_radial_303_1694" cx="0" cy="0" r="1" gradientUnits="userSpaceOnUse" gradientTransform="translate(33.3673 10.3019) scale(11.4395)">
      <stop stop-color="#FFE226"/>
      <stop offset="0.121" stop-color="#FFDB27"/>
      <stop offset="0.295" stop-color="#FFC82A"/>
      <stop offset="0.502" stop-color="#FFA930"/>
      <stop offset="0.732" stop-color="#FF7E37"/>
      <stop offset="0.792" stop-color="#FF7139"/>
    </radialGradient>
    <radialGradient id="paint7_radial_303_1694" cx="0" cy="0" r="1" gradientUnits="userSpaceOnUse" gradientTransform="translate(42.359 3.04599) scale(48.8073)">
      <stop offset="0.113" stop-color="#FFF44F"/>
      <stop offset="0.456" stop-color="#FF980E"/>
      <stop offset="0.622" stop-color="#FF5634"/>
      <stop offset="0.716" stop-color="#FF3647"/>
      <stop offset="0.904" stop-color="#E31587"/>
    </radialGradient>
    <radialGradient id="paint8_radial_303_1694" cx="0" cy="0" r="1" gradientUnits="userSpaceOnUse" gradientTransform="translate(38.2455 5.75985) rotate(83.976) scale(35.772 23.4769)">
      <stop stop-color="#FFF44F"/>
      <stop offset="0.06" stop-color="#FFE847"/>
      <stop offset="0.168" stop-color="#FFC830"/>
      <stop offset="0.304" stop-color="#FF980E"/>
      <stop offset="0.356" stop-color="#FF8B16"/>
      <stop offset="0.455" stop-color="#FF672A"/>
      <stop offset="0.57" stop-color="#FF3647"/>
      <stop offset="0.737" stop-color="#E31587"/>
    </radialGradient>
    <radialGradient id="paint9_radial_303_1694" cx="0" cy="0" r="1" gradientUnits="userSpaceOnUse" gradientTransform="translate(33.0979 14.5389) scale(30.4712)">
      <stop offset="0.137" stop-color="#FFF44F"/>
      <stop offset="0.48" stop-color="#FF980E"/>
      <stop offset="0.592" stop-color="#FF5634"/>
      <stop offset="0.655" stop-color="#FF3647"/>
      <stop offset="0.904" stop-color="#E31587"/>
    </radialGradient>
    <radialGradient id="paint10_radial_303_1694" cx="0" cy="0" r="1" gradientUnits="userSpaceOnUse" gradientTransform="translate(41.1414 16.3223) scale(33.3506)">
      <stop offset="0.094" stop-color="#FFF44F"/>
      <stop offset="0.231" stop-color="#FFE141"/>
      <stop offset="0.509" stop-color="#FFAF1E"/>
      <stop offset="0.626" stop-color="#FF980E"/>
    </radialGradient>
    <linearGradient id="paint11_linear_303_1694" x1="46.9017" y1="12.9836" x2="24.2731" y2="35.6117" gradientUnits="userSpaceOnUse">
      <stop offset="0.167" stop-color="#FFF44F" stop-opacity="0.8"/>
      <stop offset="0.266" stop-color="#FFF44F" stop-opacity="0.634"/>
      <stop offset="0.489" stop-color="#FFF44F" stop-opacity="0.217"/>
      <stop offset="0.6" stop-color="#FFF44F" stop-opacity="0"/>
    </linearGradient>
  </defs>
</svg>
